# xmcd
#
# Track frame offsets: 
#        150
#        10335
#        20735
#        31465
#        43627
#        55039
#        65557
#        78187
#        86527
#        101100
#        112267
#        124297
#        134012
#        146477
#        158045
#        171092
#        180392
#        189875
#        200875
#        213585
#        225575
#        238662
#
# Disc length: 3309 seconds
#
# Revision: 0
# Processed by: cddbd v1.5.1PL0 Copyright (c) Steve Scherf et al.
# Submitted via: ExactAudioCopy v0.95a5
#
DISCID=3a0ceb16
DTITLE=Michael Holliday - The Michael Holliday Collection
DYEAR=2000
DGENRE=Country
TTITLE0=The Story Of My Life
TTITLE1=Stairway Of Love
TTITLE2=Starry Eyed
TTITLE3=Nothin' To Do
TTITLE4=Gal With The Yaller Shoes
TTITLE5=Hot Diggity
TTITLE6=The Yellow Rose Of Texas
TTITLE7=Dear Heart
TTITLE8=The Folks Who Live On The Hill
TTITLE9=Have I Told You Lately That I Love You
TTITLE10=Ten Thousand Miles
TTITLE11=I Wonder Who's Kissing Her Now
TTITLE12=Tears
TTITLE13=Young In Love
TTITLE14=Little Boy Lost
TTITLE15=In Love
TTITLE16=I'll Always Be In Love With You
TTITLE17=Old Cape Cod
TTITLE18=Skye Boat Song
TTITLE19=My Last Date (With You)
TTITLE20=Skylark
TTITLE21=Palace Of Love
EXTD=
EXTT0=
EXTT1=
EXTT2=
EXTT3=
EXTT4=
EXTT5=
EXTT6=
EXTT7=
EXTT8=
EXTT9=
EXTT10=
EXTT11=
EXTT12=
EXTT13=
EXTT14=
EXTT15=
EXTT16=
EXTT17=
EXTT18=
EXTT19=
EXTT20=
EXTT21=
PLAYORDER=
